# xmcd
#
# Track frame offsets: 
#        150
#        12543
#        30067
#        45599
#        63166
#        93134
#        113291
#        138326
#        152258
#        178485
#        200253
#
# Disc length: 2848 seconds
#
# Revision: 0
# Processed by: cddbd v1.5.1PL0 Copyright (c) Steve Scherf et al.
# Submitted via: ExactAudioCopy v0.95b3
#
DISCID=780b1e0b
DTITLE=The Big Bottom Band - In Blues We Trust
DYEAR=1900
DGENRE=Blues
TTITLE0=Understatement
TTITLE1=You'll Be Taken Aback
TTITLE2=My Sweet Prostitute
TTITLE3=Baby Don't Forget
TTITLE4=Angel Blues
TTITLE5=St. Louis Blues March
TTITLE6=Bad Night
TTITLE7=Warm Blues
TTITLE8=Love Returns
TTITLE9=Bourbon's Beer
TTITLE10=I've Got Ford Movements In My Hips
EXTD=
EXTT0=
EXTT1=
EXTT2=
EXTT3=
EXTT4=
EXTT5=
EXTT6=
EXTT7=
EXTT8=
EXTT9=
EXTT10=
PLAYORDER=
